<?xml version="1.0" encoding="UTF-8"?>
<!-- Generator: Adobe Illustrator 16.0.0, SVG Export Plug-In . SVG Version: 6.00 Build 0)  -->
<!DOCTYPE svg PUBLIC "-//W3C//DTD SVG 1.1//EN" "http://www.w3.org/Graphics/SVG/1.1/DTD/svg11.dtd">
<svg version="1.1" id="Layer_1" xmlns="http://www.w3.org/2000/svg" xmlns:xlink="http://www.w3.org/1999/xlink" x="0px" y="0px" width="252px" height="30px" viewBox="0 0 252 30" enable-background="new 0 0 252 30" xml:space="preserve">
<g>
	<path fill="#010101" d="M2.893,7.655h4.312v2.923c1.214-1.783,2.96-3.315,5.885-3.315c4.242,0,6.703,2.851,6.703,7.236V26.48   h-4.314V15.783c0-2.923-1.462-4.6-4.028-4.6c-2.496,0-4.246,1.748-4.246,4.672V26.48H2.893V7.655z"/>
	<path fill="#010101" d="M22.181,17.139v-0.071c0-5.384,3.813-9.805,9.197-9.805c5.991,0,9.02,4.705,9.02,10.125   c0,0.393-0.035,0.785-0.07,1.212H26.495c0.463,3.067,2.637,4.778,5.419,4.778c2.103,0,3.6-0.785,5.097-2.246l2.532,2.246   c-1.784,2.139-4.244,3.528-7.701,3.528C26.387,26.906,22.181,22.948,22.181,17.139 M36.121,15.747   c-0.285-2.78-1.926-4.955-4.777-4.955c-2.64,0-4.493,2.032-4.885,4.955H36.121z"/>
	<polygon fill="#010101" points="47.171,16.925 40.505,7.655 45.21,7.655 49.56,13.858 53.912,7.655 58.51,7.655 51.844,16.818    58.797,26.48 54.089,26.48 49.455,19.884 44.854,26.48 40.255,26.48  "/>
	<path fill="#010101" d="M58.51,17.174v-0.071c0-5.384,4.277-9.84,10.055-9.84c5.776,0,10.017,4.385,10.017,9.77v0.07   c0,5.348-4.278,9.804-10.089,9.804C62.752,26.906,58.51,22.523,58.51,17.174 M74.268,17.174v-0.071   c0-3.315-2.388-6.061-5.775-6.061c-3.457,0-5.669,2.708-5.669,5.99v0.07c0,3.281,2.389,6.062,5.741,6.062   C72.059,23.164,74.268,20.419,74.268,17.174"/>
	<path fill="#010101" d="M79.652,24.02l1.924-2.924c2.034,1.533,4.244,2.318,6.168,2.318c1.856,0,2.925-0.785,2.925-2.033V21.31   c0-1.462-1.996-1.96-4.209-2.639c-2.779-0.783-5.879-1.925-5.879-5.525v-0.071c0-3.565,2.958-5.741,6.701-5.741   c2.352,0,4.922,0.82,6.917,2.141l-1.71,3.066c-1.818-1.106-3.743-1.782-5.313-1.782c-1.676,0-2.639,0.782-2.639,1.888v0.072   c0,1.355,2.033,1.925,4.242,2.639c2.747,0.854,5.848,2.102,5.848,5.49v0.071c0,3.957-3.067,5.918-6.986,5.918   C84.964,26.836,82.005,25.874,79.652,24.02"/>
	<path fill="#010101" d="M96.586,17.458v-0.07c0-5.098,4.064-9.521,9.271-9.521c3.421,0,5.562,1.571,7.272,3.353l-1.248,1.284   c-1.569-1.604-3.352-2.995-6.061-2.995c-4.137,0-7.345,3.458-7.345,7.809v0.07c0,4.386,3.316,7.88,7.487,7.88   c2.567,0,4.562-1.32,6.098-3.031l1.21,1.071c-1.853,2.104-4.062,3.599-7.415,3.599C100.615,26.906,96.586,22.558,96.586,17.458"/>
	<path fill="#010101" d="M116.052,8.296h1.748v5.169c1.425-3.243,4.456-5.598,8.056-5.454v1.925h-0.175   c-4.209,0-7.881,3.174-7.881,9.092v7.453h-1.748V8.296z"/>
	<path fill="#010101" d="M126.035,17.423v-0.071c0-5.276,3.709-9.482,8.629-9.482c5.098,0,8.344,4.135,8.344,9.519   c0,0.319,0,0.43-0.037,0.712h-15.08c0.318,4.529,3.562,7.168,7.133,7.168c2.812,0,4.738-1.248,6.236-2.853l1.211,1.069   c-1.852,1.997-4.027,3.422-7.523,3.422C130.174,26.906,126.035,23.092,126.035,17.423 M141.117,16.531   c-0.25-3.671-2.355-7.058-6.525-7.058c-3.6,0-6.383,3.03-6.701,7.058H141.117z"/>
	<path fill="#010101" d="M144.469,21.204v-0.072c0-3.78,3.244-5.919,7.949-5.919c2.533,0,4.279,0.321,6.025,0.783v-0.783   c0-3.673-2.246-5.563-5.988-5.563c-2.213,0-4.031,0.607-5.703,1.463l-0.643-1.533c1.994-0.927,3.955-1.568,6.453-1.568   c2.459,0,4.42,0.677,5.738,1.997c1.213,1.212,1.854,2.887,1.854,5.135V26.48h-1.711v-3.031c-1.248,1.748-3.492,3.457-6.951,3.457   C148.104,26.906,144.469,24.983,144.469,21.204 M158.479,19.672v-2.071c-1.533-0.392-3.562-0.819-6.164-0.819   c-3.852,0-5.992,1.713-5.992,4.244v0.07c0,2.638,2.496,4.172,5.277,4.172C155.307,25.268,158.479,22.985,158.479,19.672"/>
	<path fill="#010101" d="M165.076,21.809V9.901h-2.639V8.296h2.639V2.485h1.746v5.811h6.381v1.605h-6.381V21.63   c0,2.604,1.535,3.53,3.639,3.53c0.889,0,1.637-0.179,2.674-0.642v1.641c-0.928,0.427-1.82,0.642-2.961,0.642   C167.357,26.801,165.076,25.268,165.076,21.809"/>
	<path fill="#010101" d="M176.27,1.165h2.174v2.388h-2.174V1.165z M176.484,8.296h1.746V26.48h-1.746V8.296z"/>
	<polygon fill="#010101" points="181.117,8.296 183.15,8.296 190.033,24.519 196.984,8.296 198.945,8.296 190.779,26.622    189.285,26.622  "/>
	<path fill="#010101" d="M199.268,17.423v-0.071c0-5.276,3.705-9.482,8.623-9.482c5.102,0,8.348,4.135,8.348,9.519   c0,0.319,0,0.43-0.037,0.712h-15.08c0.32,4.529,3.562,7.168,7.131,7.168c2.816,0,4.74-1.248,6.238-2.853l1.209,1.069   c-1.852,1.997-4.025,3.422-7.521,3.422C203.4,26.906,199.268,23.092,199.268,17.423 M214.348,16.531   c-0.25-3.671-2.354-7.058-6.523-7.058c-3.604,0-6.383,3.03-6.703,7.058H214.348z"/>
	<path fill="#2757A6" d="M248.354,7.679c2.289,6.112-0.814,12.922-6.926,15.208c-6.113,2.287-12.92-0.814-15.209-6.927   c-2.285-6.112,0.812-12.919,6.928-15.208C239.258-1.534,246.066,1.567,248.354,7.679"/>
	<path fill="#2757A6" d="M231.807,24.87c0.736,1.965-0.258,4.151-2.227,4.889c-1.963,0.733-4.15-0.261-4.887-2.227   c-0.736-1.965,0.264-4.151,2.229-4.887C228.883,21.91,231.072,22.907,231.807,24.87"/>
</g>
</svg>